<?xml version="1.0" standalone="no"?>
<!DOCTYPE svg PUBLIC "-//W3C//DTD SVG 20010904//EN"
 "http://www.w3.org/TR/2001/REC-SVG-20010904/DTD/svg10.dtd">
<svg version="1.0" xmlns="http://www.w3.org/2000/svg"
 width="1024.000000pt" height="1024.000000pt" viewBox="0 0 1024.000000 1024.000000"
 preserveAspectRatio="xMidYMid meet">

<g transform="translate(0.000000,1024.000000) scale(0.100000,-0.100000)"
fill="#000000" stroke="none">
<path d="M4810 8460 c-366 -35 -669 -114 -935 -245 -268 -131 -455 -291 -566
-484 -70 -122 -91 -195 -97 -338 -5 -149 11 -234 69 -354 143 -295 467 -532
929 -680 58 -18 107 -34 108 -35 2 -1 -136 -351 -307 -778 -171 -426 -311
-787 -311 -801 0 -14 9 -34 20 -45 19 -19 33 -20 220 -20 220 0 247 5 291 57
14 17 76 156 138 309 67 166 123 289 137 304 l24 25 575 3 c647 3 619 6 655
-71 11 -23 64 -152 119 -286 54 -134 111 -260 126 -279 46 -57 71 -62 295 -62
187 0 201 1 220 20 11 11 20 31 20 45 0 13 -139 374 -310 801 -170 427 -310
778 -310 780 0 2 8 4 18 4 37 0 289 93 407 149 305 146 512 331 620 556 102
211 101 442 -1 648 -192 389 -705 667 -1404 763 -137 18 -609 27 -750 14z
m770 -304 c266 -43 475 -103 657 -190 161 -78 246 -136 348 -240 127 -128 174
-229 175 -372 0 -127 -57 -250 -176 -374 -88 -92 -186 -162 -321 -229 -162
-81 -435 -174 -452 -155 -4 5 -94 225 -200 489 -106 264 -202 491 -214 504
-42 45 -73 51 -279 51 -216 0 -244 -7 -284 -67 -12 -18 -108 -249 -214 -512
l-191 -480 -147 50 c-183 62 -383 159 -487 236 -362 269 -412 587 -136 863 47
48 119 108 159 135 226 147 553 257 882 294 52 6 109 13 125 15 17 2 170 3
340 1 229 -2 338 -7 415 -19z m-411 -1288 c57 -125 371 -932 371 -954 -1 -44
1 -44 -409 -54 -264 -6 -400 -6 -412 1 -12 6 -19 21 -19 37 0 27 346 927 389
1010 12 23 26 42 32 42 6 0 27 -37 48 -82z"/>
<path d="M2991 3668 c-11 -27 -129 -327 -296 -753 -64 -165 -126 -321 -136
-347 l-19 -48 108 0 108 0 54 145 55 145 250 0 250 0 55 -142 56 -143 107 -3
108 -3 -14 33 c-7 18 -110 282 -228 585 l-214 553 -118 0 c-113 0 -118 -1
-126 -22z m139 -229 c0 -5 38 -106 85 -225 47 -119 85 -218 85 -220 0 -2 -83
-4 -184 -4 l-184 0 72 183 c40 100 81 205 91 234 10 29 22 50 27 47 4 -3 8 -9
8 -15z"/>
<path d="M3982 3263 c4 -414 5 -430 26 -488 61 -163 205 -261 412 -279 203
-19 391 66 468 212 59 111 62 135 62 579 l0 403 -100 0 -99 0 -3 -402 c-3
-396 -3 -404 -26 -453 -47 -101 -104 -136 -233 -143 -109 -5 -175 14 -230 69
-66 66 -69 88 -69 536 l0 393 -106 0 -105 0 3 -427z"/>
<path d="M5390 3105 l0 -585 100 0 100 0 0 215 0 215 113 0 113 0 135 -212
134 -213 123 -3 123 -3 -144 213 c-79 117 -147 218 -150 225 -5 7 13 21 47 36
73 34 140 97 173 166 25 50 28 67 28 156 0 87 -3 107 -26 155 -35 76 -77 121
-147 158 -105 56 -147 62 -449 62 l-273 0 0 -585z m562 395 c118 -33 168 -192
91 -288 -58 -71 -77 -77 -275 -80 l-178 -4 0 191 0 191 163 0 c89 0 179 -5
199 -10z"/>
<path d="M7052 3638 c-11 -29 -111 -285 -222 -568 -111 -283 -205 -523 -207
-532 -5 -16 4 -18 100 -18 l105 0 57 145 57 145 248 0 248 0 37 -97 c21 -54
46 -118 55 -143 l18 -45 106 -3 c58 -1 106 0 106 2 0 3 -10 29 -21 58 -12 29
-113 289 -225 578 l-203 525 -120 3 -119 3 -20 -53z m291 -560 l35 -88 -184 0
c-101 0 -184 2 -184 5 0 2 36 98 81 212 45 115 85 219 91 233 8 22 16 8 67
-125 32 -83 74 -189 94 -237z"/>
</g>
</svg>
